<svg data-v-423bf9ae="" xmlns="http://www.w3.org/2000/svg" viewBox="0 0 653 112" class="iconLeft"><!----><!----><!----><g data-v-423bf9ae="" id="e1ba8591-3ca8-4aca-8e9f-7c05e0a6b45c" fill="#25BDD6" transform="matrix(6.08519290965367,0,0,6.08519290965367,124.78250844935633,20.626549131904873)"><path d="M1.04 10.50L2.97 10.50L2.97 2.66L3.11 2.66L5.49 10.50L8.67 10.50L8.67 0.98L6.73 0.98L6.73 8.82L6.59 8.82L4.30 0.98L1.04 0.98ZM10.74 10.50L16.90 10.50L16.90 8.82L12.67 8.82L12.67 6.54L16.06 6.54L16.06 4.89L12.67 4.89L12.67 2.66L16.90 2.66L16.90 0.98L10.74 0.98ZM17.72 0.98L19.54 10.50L22.47 10.50L23.97 3.26L25.47 10.50L28.39 10.50L30.21 0.98L28.18 0.98L27.01 8.85L26.80 8.85L25.09 0.98L22.85 0.98L21.14 8.85L20.93 8.85L19.75 0.98ZM37.38 1.19C37.38 1.19 35.52 0.81 34.24 0.81C32.31 0.81 31.00 1.67 31.00 3.64C31.00 5.17 31.81 5.89 33.95 6.51C35.32 6.90 35.66 7.17 35.66 7.76C35.66 8.50 35.21 8.99 34.17 8.99C33.18 8.99 31.30 8.74 31.30 8.74L31.11 10.23C31.11 10.23 32.98 10.67 34.29 10.67C36.16 10.67 37.58 9.70 37.58 7.63C37.58 6.05 36.95 5.47 34.89 4.82C33.29 4.31 32.91 4.10 32.91 3.50C32.91 2.87 33.40 2.49 34.44 2.49C35.25 2.49 37.23 2.72 37.23 2.72ZM45.12 8.76C44.56 8.85 43.37 8.96 42.73 8.96C41.08 8.96 40.74 8.30 40.74 5.74C40.74 3.04 41.20 2.52 42.67 2.52C43.30 2.52 44.48 2.63 45.12 2.73L45.18 1.19C44.59 1.05 43.39 0.81 42.39 0.81C39.56 0.81 38.75 2.13 38.75 5.74C38.75 9.07 39.45 10.67 42.39 10.67C43.26 10.67 44.52 10.49 45.16 10.35ZM50.53 7.31L51.63 10.50L53.75 10.50L52.39 6.86C53.26 6.31 53.79 5.43 53.79 4.12C53.79 1.95 52.60 0.98 50.43 0.98L46.73 0.98L46.73 10.50L48.66 10.50L48.66 7.31ZM51.81 4.14C51.81 4.98 51.42 5.66 50.46 5.66L48.66 5.66L48.66 2.63L50.43 2.63C51.35 2.63 51.81 3.23 51.81 4.14ZM54.50 10.50L56.43 10.50L56.81 8.78L60.14 8.78L60.52 10.50L62.45 10.50L60.31 0.98L56.64 0.98ZM58.14 2.58L58.81 2.58L59.78 7.10L57.18 7.10ZM67.23 7.73C69.47 7.73 70.62 6.50 70.62 4.28C70.62 2.07 69.47 0.98 67.23 0.98L63.73 0.98L63.73 10.50L65.66 10.50L65.66 7.73ZM65.66 6.08L65.66 2.63L67.21 2.63C68.18 2.63 68.66 3.09 68.66 4.28C68.66 5.49 68.18 6.08 67.21 6.08ZM71.97 10.50L78.13 10.50L78.13 8.82L73.91 8.82L73.91 6.54L77.29 6.54L77.29 4.89L73.91 4.89L73.91 2.66L78.13 2.66L78.13 0.98L71.97 0.98ZM83.52 7.31L84.63 10.50L86.74 10.50L85.39 6.86C86.25 6.31 86.79 5.43 86.79 4.12C86.79 1.95 85.60 0.98 83.43 0.98L79.73 0.98L79.73 10.50L81.66 10.50L81.66 7.31ZM84.81 4.14C84.81 4.98 84.42 5.66 83.45 5.66L81.66 5.66L81.66 2.63L83.43 2.63C84.35 2.63 84.81 3.23 84.81 4.14Z"></path></g><!----><g data-v-423bf9ae="" id="cf7c2498-e5d3-4086-b3e2-176445c8bdd0" transform="matrix(1.1111111111111112,0,0,1.1111111111111112,0.44444444444444287,0.44444444444444287)" stroke="none" fill="#25BDD6"><path d="M49.998 0L0 32.145l49.998 32.143 49.999-32.143L49.998 0zM11.111 32.144L49.998 7.143l38.888 25.001-38.888 25-38.887-25z"></path><path d="M50.002 82.145l-50-32.143 11.11-7.143 38.89 24.999 38.884-25L100 50.002z"></path><path d="M50.002 100l-50-32.142 11.11-7.143 38.89 24.999 38.884-25L100 67.858z"></path></g><!----></svg>